<mxfile host="Electron" agent="Mozilla/5.0 (Macintosh; Intel Mac OS X 10_15_7) AppleWebKit/537.36 (KHTML, like Gecko) draw.io/24.7.8 Chrome/128.0.6613.36 Electron/32.0.1 Safari/537.36" version="24.7.8">
  <diagram name="Page-1" id="929967ad-93f9-6ef4-fab6-5d389245f69c">
    <mxGraphModel dx="2322" dy="4055" grid="1" gridSize="10" guides="1" tooltips="1" connect="1" arrows="1" fold="1" page="0" pageScale="1.5" pageWidth="827" pageHeight="1169" background="none" math="0" shadow="0">
      <root>
        <mxCell id="0" style=";html=1;" />
        <mxCell id="1" style=";html=1;" parent="0" />
        <mxCell id="1672d66443f91eb5-23" value="&lt;font style=&quot;font-size: 14px;&quot;&gt;&lt;br&gt;&lt;i&gt;EOG_meg_qc()&lt;/i&gt;&lt;br&gt;&lt;/font&gt;" style="text;strokeColor=none;fillColor=none;html=1;fontSize=28;fontStyle=1;verticalAlign=middle;align=center;" parent="1" vertex="1">
          <mxGeometry x="-1200" y="-2830" width="1110" height="40" as="geometry" />
        </mxCell>
        <mxCell id="qlgW9oU40mQZMEhXMN03-3" style="edgeStyle=orthogonalEdgeStyle;rounded=0;orthogonalLoop=1;jettySize=auto;html=1;entryX=0;entryY=0.5;entryDx=0;entryDy=0;" parent="1" source="q_XP9tdPbFsaZTS1878Z-1" target="q_XP9tdPbFsaZTS1878Z-9" edge="1">
          <mxGeometry relative="1" as="geometry">
            <Array as="points">
              <mxPoint x="-910" y="-2600" />
            </Array>
          </mxGeometry>
        </mxCell>
        <mxCell id="q_XP9tdPbFsaZTS1878Z-1" value="Input:&lt;br style=&quot;border-color: var(--border-color);&quot;&gt;Raw data,&lt;br&gt;Config parameters" style="rounded=0;whiteSpace=wrap;html=1;" parent="1" vertex="1">
          <mxGeometry x="-970" y="-2700" width="120" height="60" as="geometry" />
        </mxCell>
        <mxCell id="q_XP9tdPbFsaZTS1878Z-12" value="" style="edgeStyle=orthogonalEdgeStyle;rounded=0;orthogonalLoop=1;jettySize=auto;html=1;" parent="1" source="q_XP9tdPbFsaZTS1878Z-2" target="q_XP9tdPbFsaZTS1878Z-8" edge="1">
          <mxGeometry relative="1" as="geometry" />
        </mxCell>
        <mxCell id="q_XP9tdPbFsaZTS1878Z-2" value="" style="ellipse;fillColor=strokeColor;" parent="1" vertex="1">
          <mxGeometry x="-660" y="-2740" width="30" height="30" as="geometry" />
        </mxCell>
        <mxCell id="q_XP9tdPbFsaZTS1878Z-7" value="" style="group;flipV=1;" parent="1" vertex="1" connectable="0">
          <mxGeometry x="-775" y="-2645" width="250" height="90" as="geometry" />
        </mxCell>
        <mxCell id="q_XP9tdPbFsaZTS1878Z-8" value="Pick EOG channels&lt;br&gt;&lt;br&gt;&lt;b&gt;&lt;i&gt;mne.pick_types(eog=True)&lt;/i&gt;&lt;/b&gt;" style="html=1;align=center;verticalAlign=middle;rounded=1;absoluteArcSize=1;arcSize=25;dashed=0;fontFamily=Helvetica;fontSize=12;whiteSpace=wrap;container=0;noLabel=0;imageAlign=center;" parent="q_XP9tdPbFsaZTS1878Z-7" vertex="1">
          <mxGeometry x="10" width="240" height="80" as="geometry" />
        </mxCell>
        <mxCell id="q_XP9tdPbFsaZTS1878Z-9" value="pinIn 2" style="fontStyle=0;labelPosition=left;verticalLabelPosition=middle;align=right;verticalAlign=middle;spacingLeft=2;fontFamily=Helvetica;fontSize=12;flipH=0;resizable=0;container=0;noLabel=1;" parent="q_XP9tdPbFsaZTS1878Z-7" vertex="1">
          <mxGeometry y="25" width="10" height="30" as="geometry" />
        </mxCell>
        <mxCell id="q_XP9tdPbFsaZTS1878Z-10" value="pinIn 1" style="fontStyle=0;labelPosition=center;verticalLabelPosition=top;align=center;verticalAlign=bottom;spacingLeft=2;fontFamily=Helvetica;fontSize=12;resizable=0;container=0;noLabel=1;" parent="q_XP9tdPbFsaZTS1878Z-7" vertex="1">
          <mxGeometry x="115" y="80" width="30" height="10" as="geometry" />
        </mxCell>
        <mxCell id="zNMVAwUSSOP5G73fzrCB-7" value="" style="group" parent="1" vertex="1" connectable="0">
          <mxGeometry x="-470" y="-1250" width="260" height="130" as="geometry" />
        </mxCell>
        <mxCell id="q_XP9tdPbFsaZTS1878Z-164" value="" style="group" parent="zNMVAwUSSOP5G73fzrCB-7" vertex="1" connectable="0">
          <mxGeometry x="10" width="250" height="129.99999999999997" as="geometry" />
        </mxCell>
        <mxCell id="q_XP9tdPbFsaZTS1878Z-165" value="" style="group" parent="q_XP9tdPbFsaZTS1878Z-164" vertex="1" connectable="0">
          <mxGeometry width="240" height="129.99999999999997" as="geometry" />
        </mxCell>
        <mxCell id="q_XP9tdPbFsaZTS1878Z-166" value="&lt;p style=&quot;border-color: var(--border-color);&quot;&gt;Save info about the level of EOG&amp;nbsp;contamination for each channel (still only CORRELATION here! not similarity)&lt;br&gt;&lt;span style=&quot;background-color: initial;&quot;&gt;in a dictionary&lt;/span&gt;&lt;/p&gt;&lt;i&gt;&lt;b&gt;make_simple_metric_eog()&lt;/b&gt;&lt;/i&gt;" style="html=1;align=center;verticalAlign=middle;rounded=1;absoluteArcSize=1;arcSize=25;dashed=0;fontFamily=Helvetica;fontSize=12;whiteSpace=wrap;container=0;noLabel=0;imageAlign=center;" parent="q_XP9tdPbFsaZTS1878Z-165" vertex="1">
          <mxGeometry y="12.999999999999998" width="240" height="103.99999999999999" as="geometry" />
        </mxCell>
        <mxCell id="q_XP9tdPbFsaZTS1878Z-168" value="pinOut 1" style="fontStyle=0;labelPosition=right;verticalLabelPosition=middle;align=left;verticalAlign=middle;spacingLeft=2;fontFamily=Helvetica;fontSize=12;resizable=0;container=0;noLabel=1;" parent="q_XP9tdPbFsaZTS1878Z-164" vertex="1">
          <mxGeometry x="240" y="45.500000000000284" width="10" height="30" as="geometry" />
        </mxCell>
        <mxCell id="9IHO7kmMHEtFKrcHk71c-19" value="pinIn 2" style="fontStyle=0;labelPosition=left;verticalLabelPosition=middle;align=right;verticalAlign=middle;spacingLeft=2;fontFamily=Helvetica;fontSize=12;flipH=0;resizable=0;container=0;noLabel=1;" vertex="1" parent="zNMVAwUSSOP5G73fzrCB-7">
          <mxGeometry y="45.5" width="10" height="30" as="geometry" />
        </mxCell>
        <mxCell id="ua0UwOFp4txvmiH0tm5q-27" value="" style="edgeStyle=orthogonalEdgeStyle;rounded=0;orthogonalLoop=1;jettySize=auto;html=1;" parent="1" source="huTJLk3M8OtfZe6XO08h-6" target="ua0UwOFp4txvmiH0tm5q-26" edge="1">
          <mxGeometry relative="1" as="geometry" />
        </mxCell>
        <mxCell id="ua0UwOFp4txvmiH0tm5q-28" value="False" style="edgeLabel;html=1;align=center;verticalAlign=middle;resizable=0;points=[];" parent="ua0UwOFp4txvmiH0tm5q-27" vertex="1" connectable="0">
          <mxGeometry x="-0.2923" y="1" relative="1" as="geometry">
            <mxPoint y="1" as="offset" />
          </mxGeometry>
        </mxCell>
        <mxCell id="ua0UwOFp4txvmiH0tm5q-38" style="edgeStyle=orthogonalEdgeStyle;rounded=0;orthogonalLoop=1;jettySize=auto;html=1;entryX=0.5;entryY=0;entryDx=0;entryDy=0;" parent="1" source="huTJLk3M8OtfZe6XO08h-6" target="ua0UwOFp4txvmiH0tm5q-36" edge="1">
          <mxGeometry relative="1" as="geometry" />
        </mxCell>
        <mxCell id="ua0UwOFp4txvmiH0tm5q-39" value="True" style="edgeLabel;html=1;align=center;verticalAlign=middle;resizable=0;points=[];" parent="ua0UwOFp4txvmiH0tm5q-38" vertex="1" connectable="0">
          <mxGeometry x="-0.0744" y="2" relative="1" as="geometry">
            <mxPoint as="offset" />
          </mxGeometry>
        </mxCell>
        <mxCell id="huTJLk3M8OtfZe6XO08h-6" value="Mean wave is good?" style="rhombus;whiteSpace=wrap;html=1;fontFamily=Helvetica;fontColor=#000000;" parent="1" vertex="1">
          <mxGeometry x="-717.4999999999999" y="-2060" width="140" height="80" as="geometry" />
        </mxCell>
        <mxCell id="ua0UwOFp4txvmiH0tm5q-1" value="" style="group;flipV=1;" parent="1" vertex="1" connectable="0">
          <mxGeometry x="-775" y="-2520" width="250" height="90" as="geometry" />
        </mxCell>
        <mxCell id="ua0UwOFp4txvmiH0tm5q-2" value="Detect EOG channel (blinks) and get its data:&lt;br&gt;&lt;br&gt;&lt;b&gt;&lt;i&gt;get_EOG_data()&lt;/i&gt;&lt;/b&gt;" style="html=1;align=center;verticalAlign=middle;rounded=1;absoluteArcSize=1;arcSize=25;dashed=0;fontFamily=Helvetica;fontSize=12;whiteSpace=wrap;container=0;noLabel=0;imageAlign=center;" parent="ua0UwOFp4txvmiH0tm5q-1" vertex="1">
          <mxGeometry x="10" width="240" height="80" as="geometry" />
        </mxCell>
        <mxCell id="ua0UwOFp4txvmiH0tm5q-4" value="pinIn 1" style="fontStyle=0;labelPosition=center;verticalLabelPosition=top;align=center;verticalAlign=bottom;spacingLeft=2;fontFamily=Helvetica;fontSize=12;resizable=0;container=0;noLabel=1;" parent="ua0UwOFp4txvmiH0tm5q-1" vertex="1">
          <mxGeometry x="115" y="80" width="30" height="10" as="geometry" />
        </mxCell>
        <mxCell id="ua0UwOFp4txvmiH0tm5q-7" style="edgeStyle=orthogonalEdgeStyle;rounded=0;orthogonalLoop=1;jettySize=auto;html=1;exitX=0.5;exitY=1;exitDx=0;exitDy=0;entryX=0.5;entryY=0;entryDx=0;entryDy=0;" parent="1" source="q_XP9tdPbFsaZTS1878Z-10" target="ua0UwOFp4txvmiH0tm5q-2" edge="1">
          <mxGeometry relative="1" as="geometry" />
        </mxCell>
        <mxCell id="ua0UwOFp4txvmiH0tm5q-8" value="" style="group;flipV=1;" parent="1" vertex="1" connectable="0">
          <mxGeometry x="-775" y="-2274" width="243" height="145" as="geometry" />
        </mxCell>
        <mxCell id="ua0UwOFp4txvmiH0tm5q-9" value="&lt;div style=&quot;line-height: 18px;&quot;&gt;&lt;p style=&quot;&quot;&gt;Calculate&lt;b&gt; mean wave&lt;/b&gt; based on either real EOG channel data or on reconstructed data (depending on the method used)&lt;br&gt;     and check if it has a wave shape&lt;br&gt;&lt;b style=&quot;background-color: initial;&quot;&gt;&lt;i&gt;check_mean_wave()&lt;/i&gt;&lt;/b&gt;&lt;/p&gt;&lt;p style=&quot;&quot;&gt;Save mean wave data to tsv&lt;/p&gt;&lt;/div&gt;" style="html=1;align=center;verticalAlign=middle;rounded=1;absoluteArcSize=1;arcSize=25;dashed=0;fontFamily=Helvetica;fontSize=12;whiteSpace=wrap;container=0;noLabel=0;imageAlign=center;" parent="ua0UwOFp4txvmiH0tm5q-8" vertex="1">
          <mxGeometry x="9.72" width="233.28" height="128.8888888888889" as="geometry" />
        </mxCell>
        <mxCell id="ua0UwOFp4txvmiH0tm5q-10" value="pinIn 1" style="fontStyle=0;labelPosition=center;verticalLabelPosition=top;align=center;verticalAlign=bottom;spacingLeft=2;fontFamily=Helvetica;fontSize=12;resizable=0;container=0;noLabel=1;" parent="ua0UwOFp4txvmiH0tm5q-8" vertex="1">
          <mxGeometry x="111.78" y="128.8888888888889" width="30" height="10" as="geometry" />
        </mxCell>
        <mxCell id="ua0UwOFp4txvmiH0tm5q-20" value="1" style="ellipse;html=1;" parent="1" vertex="1">
          <mxGeometry x="-488" y="-2229" width="30" height="30" as="geometry" />
        </mxCell>
        <mxCell id="ua0UwOFp4txvmiH0tm5q-24" value="" style="edgeStyle=orthogonalEdgeStyle;rounded=0;orthogonalLoop=1;jettySize=auto;html=1;" parent="1" target="ua0UwOFp4txvmiH0tm5q-20" edge="1">
          <mxGeometry relative="1" as="geometry">
            <mxPoint x="-522" y="-2214" as="sourcePoint" />
          </mxGeometry>
        </mxCell>
        <mxCell id="ua0UwOFp4txvmiH0tm5q-92" style="edgeStyle=orthogonalEdgeStyle;rounded=0;orthogonalLoop=1;jettySize=auto;html=1;entryX=0;entryY=0.5;entryDx=0;entryDy=0;" parent="1" source="ua0UwOFp4txvmiH0tm5q-26" target="ua0UwOFp4txvmiH0tm5q-91" edge="1">
          <mxGeometry relative="1" as="geometry" />
        </mxCell>
        <mxCell id="ua0UwOFp4txvmiH0tm5q-26" value="" style="shape=sumEllipse;perimeter=ellipsePerimeter;html=1;backgroundOutline=1;" parent="1" vertex="1">
          <mxGeometry x="-480" y="-2035" width="30" height="30" as="geometry" />
        </mxCell>
        <mxCell id="ua0UwOFp4txvmiH0tm5q-35" value="" style="group;flipV=1;" parent="1" vertex="1" connectable="0">
          <mxGeometry x="-767" y="-1920" width="240" height="100" as="geometry" />
        </mxCell>
        <mxCell id="ua0UwOFp4txvmiH0tm5q-36" value="&lt;font style=&quot;font-size: 12px;&quot;&gt;Create EOG epochs for all channels based on the recorded or reconstructed EOG channel&lt;br&gt;&lt;br&gt;&lt;/font&gt;&lt;div style=&quot;line-height: 18px;&quot;&gt;&lt;font style=&quot;font-size: 12px;&quot;&gt;&lt;b&gt;&lt;i&gt;mne.preprocessing.create_eog_epochs()&lt;/i&gt;&lt;/b&gt;&lt;/font&gt;&lt;/div&gt;" style="html=1;align=center;verticalAlign=middle;rounded=1;absoluteArcSize=1;arcSize=25;dashed=0;fontFamily=Helvetica;fontSize=12;whiteSpace=wrap;container=0;noLabel=0;imageAlign=center;" parent="ua0UwOFp4txvmiH0tm5q-35" vertex="1">
          <mxGeometry width="240.00000000000003" height="88.89" as="geometry" />
        </mxCell>
        <mxCell id="ua0UwOFp4txvmiH0tm5q-37" value="pinIn 1" style="fontStyle=0;labelPosition=center;verticalLabelPosition=top;align=center;verticalAlign=bottom;spacingLeft=2;fontFamily=Helvetica;fontSize=12;resizable=0;container=0;noLabel=1;" parent="ua0UwOFp4txvmiH0tm5q-35" vertex="1">
          <mxGeometry x="105.39999999999999" y="88.88888888888889" width="30" height="10" as="geometry" />
        </mxCell>
        <mxCell id="ua0UwOFp4txvmiH0tm5q-40" value="" style="group;direction=west;flipH=1;" parent="1" vertex="1" connectable="0">
          <mxGeometry x="-766" y="-1780" width="250" height="90" as="geometry" />
        </mxCell>
        <mxCell id="ua0UwOFp4txvmiH0tm5q-41" value="&lt;b&gt;&lt;i&gt;Optional:&lt;/i&gt;&lt;/b&gt;&lt;div&gt;Visualise EOG artifacts on channels using MNE&lt;br&gt;&lt;br&gt;&lt;b&gt;&lt;i&gt;plot_ecg_eog_mne&lt;font face=&quot;Courier New&quot;&gt;()&lt;/font&gt;&lt;/i&gt;&lt;/b&gt;&lt;/div&gt;" style="html=1;align=center;verticalAlign=middle;rounded=1;absoluteArcSize=1;arcSize=25;dashed=0;fontFamily=Helvetica;fontSize=12;whiteSpace=wrap;container=0;noLabel=0;imageAlign=center;" parent="ua0UwOFp4txvmiH0tm5q-40" vertex="1">
          <mxGeometry y="10" width="240" height="80" as="geometry" />
        </mxCell>
        <mxCell id="ua0UwOFp4txvmiH0tm5q-42" value="pinIn 2" style="fontStyle=0;labelPosition=left;verticalLabelPosition=middle;align=right;verticalAlign=middle;spacingLeft=2;fontFamily=Helvetica;fontSize=12;flipH=0;resizable=0;container=0;noLabel=1;" parent="ua0UwOFp4txvmiH0tm5q-40" vertex="1">
          <mxGeometry x="240" y="35" width="10" height="30" as="geometry" />
        </mxCell>
        <mxCell id="ua0UwOFp4txvmiH0tm5q-43" value="pinIn 1" style="fontStyle=0;labelPosition=center;verticalLabelPosition=top;align=center;verticalAlign=bottom;spacingLeft=2;fontFamily=Helvetica;fontSize=12;resizable=0;container=0;noLabel=1;" parent="ua0UwOFp4txvmiH0tm5q-40" vertex="1">
          <mxGeometry x="105" width="30" height="10" as="geometry" />
        </mxCell>
        <mxCell id="ua0UwOFp4txvmiH0tm5q-44" value="2*" style="ellipse;html=1;" parent="1" vertex="1">
          <mxGeometry x="-480" y="-1745" width="30" height="30" as="geometry" />
        </mxCell>
        <mxCell id="ua0UwOFp4txvmiH0tm5q-45" value="" style="edgeStyle=orthogonalEdgeStyle;rounded=0;orthogonalLoop=1;jettySize=auto;html=1;" parent="1" source="ua0UwOFp4txvmiH0tm5q-37" target="ua0UwOFp4txvmiH0tm5q-43" edge="1">
          <mxGeometry relative="1" as="geometry" />
        </mxCell>
        <mxCell id="ua0UwOFp4txvmiH0tm5q-46" value="" style="edgeStyle=orthogonalEdgeStyle;rounded=0;orthogonalLoop=1;jettySize=auto;html=1;" parent="1" source="ua0UwOFp4txvmiH0tm5q-42" target="ua0UwOFp4txvmiH0tm5q-44" edge="1">
          <mxGeometry relative="1" as="geometry" />
        </mxCell>
        <mxCell id="ua0UwOFp4txvmiH0tm5q-47" value="" style="group" parent="1" vertex="1" connectable="0">
          <mxGeometry x="-767" y="-1640" width="235" height="150" as="geometry" />
        </mxCell>
        <mxCell id="ua0UwOFp4txvmiH0tm5q-48" value="- Calculate mean EOG artifact for every channel,&lt;br&gt;- Calculate &lt;b&gt;&lt;i&gt;smoothed&lt;/i&gt;&lt;/b&gt; mean EOG signal for every channel using Gaussian kernel,&lt;br&gt;- Assign lobe color code to each channel for&amp;nbsp; plotting&lt;br&gt;&lt;br&gt;&lt;b&gt;&lt;i&gt;calculate_artifacts_on_channels&lt;font face=&quot;Courier New&quot;&gt;()&lt;/font&gt;&lt;/i&gt;&lt;/b&gt;" style="html=1;align=center;verticalAlign=middle;rounded=1;absoluteArcSize=1;arcSize=25;dashed=0;fontFamily=Helvetica;fontSize=12;whiteSpace=wrap;container=0;noLabel=0;imageAlign=center;" parent="ua0UwOFp4txvmiH0tm5q-47" vertex="1">
          <mxGeometry y="13" width="235" height="120" as="geometry" />
        </mxCell>
        <mxCell id="ua0UwOFp4txvmiH0tm5q-49" value="pinOut 2" style="fontStyle=0;labelPosition=center;verticalLabelPosition=bottom;align=center;verticalAlign=top;spacingLeft=2;fontFamily=Helvetica;fontSize=12;resizable=0;container=0;noLabel=1;" parent="ua0UwOFp4txvmiH0tm5q-47" vertex="1">
          <mxGeometry x="102.8125" y="133.00000000000003" width="30" height="10" as="geometry" />
        </mxCell>
        <mxCell id="ua0UwOFp4txvmiH0tm5q-50" value="pinIn 1" style="fontStyle=0;labelPosition=center;verticalLabelPosition=top;align=center;verticalAlign=bottom;spacingLeft=2;fontFamily=Helvetica;fontSize=12;resizable=0;container=0;noLabel=1;" parent="ua0UwOFp4txvmiH0tm5q-47" vertex="1">
          <mxGeometry x="102.8125" y="2.5" width="30" height="10" as="geometry" />
        </mxCell>
        <mxCell id="ua0UwOFp4txvmiH0tm5q-51" style="edgeStyle=orthogonalEdgeStyle;rounded=0;orthogonalLoop=1;jettySize=auto;html=1;exitX=0.25;exitY=1;exitDx=0;exitDy=0;entryX=0.584;entryY=0;entryDx=0;entryDy=0;entryPerimeter=0;" parent="1" source="ua0UwOFp4txvmiH0tm5q-37" target="ua0UwOFp4txvmiH0tm5q-50" edge="1">
          <mxGeometry relative="1" as="geometry">
            <mxPoint x="-622" y="-1660" as="targetPoint" />
            <Array as="points">
              <mxPoint x="-654" y="-1800" />
              <mxPoint x="-812" y="-1800" />
              <mxPoint x="-812" y="-1660" />
              <mxPoint x="-647" y="-1660" />
            </Array>
          </mxGeometry>
        </mxCell>
        <mxCell id="ua0UwOFp4txvmiH0tm5q-57" value="" style="group" parent="1" vertex="1" connectable="0">
          <mxGeometry x="-770" y="-1260" width="240" height="150" as="geometry" />
        </mxCell>
        <mxCell id="ua0UwOFp4txvmiH0tm5q-58" value="Use Pearson correlation of &lt;b&gt;mean wave&lt;/b&gt; with the EOG signal data of each channel to find the correlation coefficient for each channel. Higher correlation -&amp;gt; channel is more affected by EOG contamination&lt;br&gt;&lt;br&gt;&lt;b&gt;find_affected_by_correlation&lt;i&gt;&lt;font face=&quot;Courier New&quot;&gt;()&lt;/font&gt;&lt;/i&gt;&lt;/b&gt;" style="html=1;align=center;verticalAlign=middle;rounded=1;absoluteArcSize=1;arcSize=25;dashed=0;fontFamily=Helvetica;fontSize=12;whiteSpace=wrap;container=0;noLabel=0;imageAlign=center;" parent="ua0UwOFp4txvmiH0tm5q-57" vertex="1">
          <mxGeometry y="14.999999999999998" width="240" height="119.99999999999999" as="geometry" />
        </mxCell>
        <mxCell id="ua0UwOFp4txvmiH0tm5q-59" value="pinOut 2" style="fontStyle=0;labelPosition=center;verticalLabelPosition=bottom;align=center;verticalAlign=top;spacingLeft=2;fontFamily=Helvetica;fontSize=12;resizable=0;container=0;noLabel=1;" parent="ua0UwOFp4txvmiH0tm5q-57" vertex="1">
          <mxGeometry x="105" y="135" width="30" height="10" as="geometry" />
        </mxCell>
        <mxCell id="ua0UwOFp4txvmiH0tm5q-60" value="pinIn 1" style="fontStyle=0;labelPosition=center;verticalLabelPosition=top;align=center;verticalAlign=bottom;spacingLeft=2;fontFamily=Helvetica;fontSize=12;resizable=0;container=0;noLabel=1;" parent="ua0UwOFp4txvmiH0tm5q-57" vertex="1">
          <mxGeometry x="105" y="5" width="30" height="10" as="geometry" />
        </mxCell>
        <mxCell id="ua0UwOFp4txvmiH0tm5q-63" value="" style="group;flipH=1;" parent="1" vertex="1" connectable="0">
          <mxGeometry x="-770" y="-1070" width="250" height="100" as="geometry" />
        </mxCell>
        <mxCell id="ua0UwOFp4txvmiH0tm5q-64" value="Save correlation data of each channel sorted by their correlation coefficient&lt;div&gt;&lt;div style=&quot;color: rgb(59, 59, 59); font-family: Menlo, Monaco, &amp;quot;Courier New&amp;quot;, monospace; line-height: 18px; white-space: pre;&quot;&gt;&lt;i style=&quot;color: rgb(0, 0, 0); font-family: Helvetica; white-space: normal;&quot;&gt;&lt;b&gt;ch_dict_to_csv&lt;/b&gt;&lt;font face=&quot;Courier New&quot;&gt;&lt;b&gt;()&lt;/b&gt;&lt;/font&gt;&lt;/i&gt;&lt;br&gt;&lt;/div&gt;&lt;/div&gt;" style="html=1;align=center;verticalAlign=middle;rounded=1;absoluteArcSize=1;arcSize=25;dashed=0;fontFamily=Helvetica;fontSize=12;whiteSpace=wrap;container=0;noLabel=0;imageAlign=center;" parent="ua0UwOFp4txvmiH0tm5q-63" vertex="1">
          <mxGeometry y="10" width="240" height="80" as="geometry" />
        </mxCell>
        <mxCell id="ua0UwOFp4txvmiH0tm5q-65" value="pinIn 2" style="fontStyle=0;labelPosition=left;verticalLabelPosition=middle;align=right;verticalAlign=middle;spacingLeft=2;fontFamily=Helvetica;fontSize=12;flipH=0;resizable=0;container=0;noLabel=1;" parent="ua0UwOFp4txvmiH0tm5q-63" vertex="1">
          <mxGeometry x="240" y="35" width="10" height="30" as="geometry" />
        </mxCell>
        <mxCell id="ua0UwOFp4txvmiH0tm5q-66" value="pinIn 1" style="fontStyle=0;labelPosition=center;verticalLabelPosition=top;align=center;verticalAlign=bottom;spacingLeft=2;fontFamily=Helvetica;fontSize=12;resizable=0;container=0;noLabel=1;" parent="ua0UwOFp4txvmiH0tm5q-63" vertex="1">
          <mxGeometry x="105" width="30" height="10" as="geometry" />
        </mxCell>
        <mxCell id="9IHO7kmMHEtFKrcHk71c-15" value="pinOut 2" style="fontStyle=0;labelPosition=center;verticalLabelPosition=bottom;align=center;verticalAlign=top;spacingLeft=2;fontFamily=Helvetica;fontSize=12;resizable=0;container=0;noLabel=1;" vertex="1" parent="ua0UwOFp4txvmiH0tm5q-63">
          <mxGeometry x="105" y="90" width="30" height="10" as="geometry" />
        </mxCell>
        <mxCell id="ua0UwOFp4txvmiH0tm5q-69" style="edgeStyle=orthogonalEdgeStyle;rounded=0;orthogonalLoop=1;jettySize=auto;html=1;exitX=0.5;exitY=1;exitDx=0;exitDy=0;entryX=0.5;entryY=0;entryDx=0;entryDy=0;" parent="1" source="ua0UwOFp4txvmiH0tm5q-59" target="ua0UwOFp4txvmiH0tm5q-66" edge="1">
          <mxGeometry relative="1" as="geometry" />
        </mxCell>
        <mxCell id="ua0UwOFp4txvmiH0tm5q-91" value="Output:&lt;br style=&quot;border-color: var(--border-color);&quot;&gt;&lt;br style=&quot;border-color: var(--border-color);&quot;&gt;List of QC derivatives (fig)&lt;br style=&quot;border-color: var(--border-color);&quot;&gt;Empty dict as Simple metric&lt;br style=&quot;border-color: var(--border-color);&quot;&gt;Str about no EOG signal detected" style="html=1;dashed=0;fontFamily=Helvetica;fontSize=12;fontColor=rgb(0, 0, 0);align=center;strokeColor=rgb(0, 0, 0);fillColor=rgb(255, 255, 255);" parent="1" vertex="1">
          <mxGeometry x="-200" y="-2061" width="198" height="81" as="geometry" />
        </mxCell>
        <mxCell id="ua0UwOFp4txvmiH0tm5q-99" style="edgeStyle=orthogonalEdgeStyle;rounded=0;orthogonalLoop=1;jettySize=auto;html=1;exitX=0.5;exitY=1;exitDx=0;exitDy=0;entryX=0.75;entryY=0;entryDx=0;entryDy=0;" parent="1" source="ua0UwOFp4txvmiH0tm5q-49" target="ua0UwOFp4txvmiH0tm5q-60" edge="1">
          <mxGeometry relative="1" as="geometry">
            <Array as="points">
              <mxPoint x="-649" y="-1460" />
              <mxPoint x="-380" y="-1460" />
              <mxPoint x="-380" y="-1300" />
              <mxPoint x="-642" y="-1300" />
            </Array>
            <mxPoint x="-630" y="-1260" as="targetPoint" />
          </mxGeometry>
        </mxCell>
        <mxCell id="ua0UwOFp4txvmiH0tm5q-100" style="edgeStyle=orthogonalEdgeStyle;rounded=0;orthogonalLoop=1;jettySize=auto;html=1;exitX=0.75;exitY=1;exitDx=0;exitDy=0;jumpStyle=arc;entryX=0.5;entryY=0;entryDx=0;entryDy=0;" parent="1" source="ua0UwOFp4txvmiH0tm5q-10" target="ua0UwOFp4txvmiH0tm5q-60" edge="1">
          <mxGeometry relative="1" as="geometry">
            <Array as="points">
              <mxPoint x="-641" y="-2120" />
              <mxPoint x="-312" y="-2120" />
              <mxPoint x="-312" y="-1310" />
              <mxPoint x="-650" y="-1310" />
            </Array>
            <mxPoint x="-312" y="-1310" as="targetPoint" />
          </mxGeometry>
        </mxCell>
        <mxCell id="TA8RBadlavMFpg_JwYuW-1" value="pinIn 2" style="fontStyle=0;labelPosition=left;verticalLabelPosition=middle;align=right;verticalAlign=middle;spacingLeft=2;fontFamily=Helvetica;fontSize=12;flipH=0;resizable=0;container=0;noLabel=1;" parent="1" vertex="1">
          <mxGeometry x="-532" y="-2229" width="10" height="30" as="geometry" />
        </mxCell>
        <mxCell id="TA8RBadlavMFpg_JwYuW-2" style="edgeStyle=orthogonalEdgeStyle;rounded=0;orthogonalLoop=1;jettySize=auto;html=1;exitX=0.25;exitY=1;exitDx=0;exitDy=0;entryX=0.5;entryY=0;entryDx=0;entryDy=0;" parent="1" source="ua0UwOFp4txvmiH0tm5q-10" target="huTJLk3M8OtfZe6XO08h-6" edge="1">
          <mxGeometry relative="1" as="geometry">
            <Array as="points">
              <mxPoint x="-647" y="-2135" />
            </Array>
          </mxGeometry>
        </mxCell>
        <mxCell id="vJdWvzgEycFzp4JEzYMt-11" value="" style="edgeStyle=orthogonalEdgeStyle;rounded=0;orthogonalLoop=1;jettySize=auto;html=1;" parent="1" source="vJdWvzgEycFzp4JEzYMt-1" target="vJdWvzgEycFzp4JEzYMt-10" edge="1">
          <mxGeometry relative="1" as="geometry" />
        </mxCell>
        <mxCell id="vJdWvzgEycFzp4JEzYMt-12" value="False" style="edgeLabel;html=1;align=center;verticalAlign=middle;resizable=0;points=[];" parent="vJdWvzgEycFzp4JEzYMt-11" vertex="1" connectable="0">
          <mxGeometry x="-0.3552" y="-2" relative="1" as="geometry">
            <mxPoint x="1" as="offset" />
          </mxGeometry>
        </mxCell>
        <mxCell id="vJdWvzgEycFzp4JEzYMt-16" value="" style="edgeStyle=orthogonalEdgeStyle;rounded=0;orthogonalLoop=1;jettySize=auto;html=1;" parent="1" source="vJdWvzgEycFzp4JEzYMt-1" target="ua0UwOFp4txvmiH0tm5q-9" edge="1">
          <mxGeometry relative="1" as="geometry" />
        </mxCell>
        <mxCell id="vJdWvzgEycFzp4JEzYMt-17" value="True" style="edgeLabel;html=1;align=center;verticalAlign=middle;resizable=0;points=[];" parent="vJdWvzgEycFzp4JEzYMt-16" vertex="1" connectable="0">
          <mxGeometry x="-0.2157" y="-1" relative="1" as="geometry">
            <mxPoint as="offset" />
          </mxGeometry>
        </mxCell>
        <mxCell id="vJdWvzgEycFzp4JEzYMt-1" value="EOG channel present?" style="rhombus;whiteSpace=wrap;html=1;fontFamily=Helvetica;fontColor=#000000;" parent="1" vertex="1">
          <mxGeometry x="-717.4999999999999" y="-2410" width="140" height="80" as="geometry" />
        </mxCell>
        <mxCell id="vJdWvzgEycFzp4JEzYMt-18" style="edgeStyle=orthogonalEdgeStyle;rounded=0;orthogonalLoop=1;jettySize=auto;html=1;entryX=0.446;entryY=0.022;entryDx=0;entryDy=0;entryPerimeter=0;" parent="1" source="vJdWvzgEycFzp4JEzYMt-5" target="9IHO7kmMHEtFKrcHk71c-17" edge="1">
          <mxGeometry relative="1" as="geometry">
            <mxPoint x="-1030" y="-1171.9999999999995" as="targetPoint" />
            <Array as="points">
              <mxPoint x="-887" y="-1380" />
            </Array>
          </mxGeometry>
        </mxCell>
        <mxCell id="vJdWvzgEycFzp4JEzYMt-22" value="Method: mean_threshold" style="edgeLabel;html=1;align=center;verticalAlign=middle;resizable=0;points=[];" parent="vJdWvzgEycFzp4JEzYMt-18" vertex="1" connectable="0">
          <mxGeometry x="-0.0914" y="-1" relative="1" as="geometry">
            <mxPoint x="85" y="1" as="offset" />
          </mxGeometry>
        </mxCell>
        <mxCell id="vJdWvzgEycFzp4JEzYMt-19" style="edgeStyle=orthogonalEdgeStyle;rounded=0;orthogonalLoop=1;jettySize=auto;html=1;entryX=0.25;entryY=0;entryDx=0;entryDy=0;exitX=1;exitY=0.5;exitDx=0;exitDy=0;jumpStyle=arc;" parent="1" source="vJdWvzgEycFzp4JEzYMt-5" target="ua0UwOFp4txvmiH0tm5q-60" edge="1">
          <mxGeometry relative="1" as="geometry">
            <mxPoint x="-579.4999999999998" y="-1400" as="sourcePoint" />
            <mxPoint x="-659.9999999999999" y="-1275" as="targetPoint" />
            <Array as="points">
              <mxPoint x="-403" y="-1380" />
              <mxPoint x="-403" y="-1320" />
              <mxPoint x="-657" y="-1320" />
            </Array>
          </mxGeometry>
        </mxCell>
        <mxCell id="vJdWvzgEycFzp4JEzYMt-21" value="Method: correlation" style="edgeLabel;html=1;align=center;verticalAlign=middle;resizable=0;points=[];" parent="vJdWvzgEycFzp4JEzYMt-19" vertex="1" connectable="0">
          <mxGeometry x="-0.3652" y="-1" relative="1" as="geometry">
            <mxPoint x="-61" y="-1" as="offset" />
          </mxGeometry>
        </mxCell>
        <mxCell id="vJdWvzgEycFzp4JEzYMt-5" value="Choose method" style="rhombus;whiteSpace=wrap;html=1;fontFamily=Helvetica;fontColor=#000000;" parent="1" vertex="1">
          <mxGeometry x="-716.9999999999999" y="-1420" width="140" height="80" as="geometry" />
        </mxCell>
        <mxCell id="vJdWvzgEycFzp4JEzYMt-7" style="edgeStyle=orthogonalEdgeStyle;rounded=0;orthogonalLoop=1;jettySize=auto;html=1;exitX=0.5;exitY=1;exitDx=0;exitDy=0;entryX=0.5;entryY=0;entryDx=0;entryDy=0;" parent="1" source="ua0UwOFp4txvmiH0tm5q-4" target="vJdWvzgEycFzp4JEzYMt-1" edge="1">
          <mxGeometry relative="1" as="geometry" />
        </mxCell>
        <mxCell id="vJdWvzgEycFzp4JEzYMt-14" style="edgeStyle=orthogonalEdgeStyle;rounded=0;orthogonalLoop=1;jettySize=auto;html=1;" parent="1" source="vJdWvzgEycFzp4JEzYMt-10" target="vJdWvzgEycFzp4JEzYMt-13" edge="1">
          <mxGeometry relative="1" as="geometry" />
        </mxCell>
        <mxCell id="vJdWvzgEycFzp4JEzYMt-10" value="" style="shape=sumEllipse;perimeter=ellipsePerimeter;html=1;backgroundOutline=1;" parent="1" vertex="1">
          <mxGeometry x="-486" y="-2385" width="30" height="30" as="geometry" />
        </mxCell>
        <mxCell id="vJdWvzgEycFzp4JEzYMt-13" value="Output:&lt;br style=&quot;border-color: var(--border-color);&quot;&gt;&lt;br style=&quot;border-color: var(--border-color);&quot;&gt;Empty list&lt;br style=&quot;border-color: var(--border-color);&quot;&gt;Empty dict as Simple metric&lt;br style=&quot;border-color: var(--border-color);&quot;&gt;Str about no EOG contamination detected" style="html=1;dashed=0;fontFamily=Helvetica;fontSize=12;fontColor=rgb(0, 0, 0);align=center;strokeColor=rgb(0, 0, 0);fillColor=rgb(255, 255, 255);" parent="1" vertex="1">
          <mxGeometry x="-200" y="-2411" width="230" height="81" as="geometry" />
        </mxCell>
        <mxCell id="9IHO7kmMHEtFKrcHk71c-1" value="" style="group;flipH=1;" vertex="1" connectable="0" parent="1">
          <mxGeometry x="-770" y="-594.5" width="250" height="90" as="geometry" />
        </mxCell>
        <mxCell id="9IHO7kmMHEtFKrcHk71c-2" value="Save &lt;b&gt;similarity score&lt;/b&gt; for every channel &lt;br&gt;to tsv for plotting later&lt;div&gt;&lt;br&gt;&lt;i&gt;&lt;b&gt;ch_dict_to_csv&lt;/b&gt;&lt;/i&gt;&lt;b&gt;&lt;i&gt;&lt;font face=&quot;Courier New&quot;&gt;()&lt;/font&gt;&lt;/i&gt;&lt;/b&gt;&lt;/div&gt;" style="html=1;align=center;verticalAlign=middle;rounded=1;absoluteArcSize=1;arcSize=25;dashed=0;fontFamily=Helvetica;fontSize=12;whiteSpace=wrap;container=0;noLabel=0;imageAlign=center;" vertex="1" parent="9IHO7kmMHEtFKrcHk71c-1">
          <mxGeometry y="10" width="240" height="80" as="geometry" />
        </mxCell>
        <mxCell id="9IHO7kmMHEtFKrcHk71c-3" value="pinIn 2" style="fontStyle=0;labelPosition=left;verticalLabelPosition=middle;align=right;verticalAlign=middle;spacingLeft=2;fontFamily=Helvetica;fontSize=12;flipH=0;resizable=0;container=0;noLabel=1;" vertex="1" parent="9IHO7kmMHEtFKrcHk71c-1">
          <mxGeometry x="240" y="35" width="10" height="30" as="geometry" />
        </mxCell>
        <mxCell id="9IHO7kmMHEtFKrcHk71c-4" value="pinIn 1" style="fontStyle=0;labelPosition=center;verticalLabelPosition=top;align=center;verticalAlign=bottom;spacingLeft=2;fontFamily=Helvetica;fontSize=12;resizable=0;container=0;noLabel=1;" vertex="1" parent="9IHO7kmMHEtFKrcHk71c-1">
          <mxGeometry x="105" width="30" height="10" as="geometry" />
        </mxCell>
        <mxCell id="9IHO7kmMHEtFKrcHk71c-5" value="4" style="ellipse;html=1;" vertex="1" parent="1">
          <mxGeometry x="-470" y="-559.5" width="30" height="30" as="geometry" />
        </mxCell>
        <mxCell id="9IHO7kmMHEtFKrcHk71c-6" style="edgeStyle=orthogonalEdgeStyle;rounded=0;orthogonalLoop=1;jettySize=auto;html=1;entryX=0;entryY=0.5;entryDx=0;entryDy=0;" edge="1" parent="1" source="9IHO7kmMHEtFKrcHk71c-3" target="9IHO7kmMHEtFKrcHk71c-5">
          <mxGeometry relative="1" as="geometry" />
        </mxCell>
        <mxCell id="9IHO7kmMHEtFKrcHk71c-7" value="&lt;div&gt;Calculate the &lt;b&gt;ratio&lt;/b&gt; between the channel&#39;s min-max &lt;b&gt;amplitude&lt;/b&gt; and min-max&lt;span style=&quot;background-color: initial;&quot;&gt;&amp;nbsp;amplitude across all channels&lt;/span&gt;&lt;span style=&quot;background-color: initial;&quot;&gt;&amp;nbsp;&lt;/span&gt;&lt;/div&gt;&lt;br&gt;&lt;b&gt;find_affected_by_amplitude_ratio&lt;i&gt;&lt;font face=&quot;Courier New&quot;&gt;()&lt;/font&gt;&lt;/i&gt;&lt;/b&gt;" style="html=1;align=center;verticalAlign=middle;rounded=1;absoluteArcSize=1;arcSize=25;dashed=0;fontFamily=Helvetica;fontSize=12;whiteSpace=wrap;container=0;noLabel=0;imageAlign=center;" vertex="1" parent="1">
          <mxGeometry x="-770" y="-922" width="240" height="119.99999999999999" as="geometry" />
        </mxCell>
        <mxCell id="9IHO7kmMHEtFKrcHk71c-8" value="&lt;p style=&quot;line-height: 18px; white-space: pre;&quot;&gt;&lt;font style=&quot;font-size: 12px;&quot; face=&quot;Helvetica&quot;&gt;&lt;font style=&quot;font-size: 12px;&quot;&gt;Calculate the &lt;b&gt;similarity score&lt;/b&gt; &lt;br&gt;&lt;/font&gt;&lt;/font&gt;&lt;span style=&quot;background-color: initial;&quot;&gt;for every channel as:&lt;/span&gt;&lt;/p&gt;&lt;p style=&quot;line-height: 18px; white-space: pre;&quot;&gt;&lt;font style=&quot;font-size: 12px;&quot; face=&quot;Helvetica&quot;&gt;&lt;font style=&quot;font-size: 12px;&quot;&gt;correlation * amplitude_ratio&lt;/font&gt;&lt;/font&gt;&lt;/p&gt;&lt;b&gt;find_affected_by_similarity score&lt;i&gt;&lt;font face=&quot;Courier New&quot;&gt;()&lt;/font&gt;&lt;/i&gt;&lt;/b&gt;" style="html=1;align=center;verticalAlign=middle;rounded=1;absoluteArcSize=1;arcSize=25;dashed=0;fontFamily=Helvetica;fontSize=12;whiteSpace=wrap;container=0;noLabel=0;imageAlign=center;" vertex="1" parent="1">
          <mxGeometry x="-770" y="-754.5" width="240" height="120" as="geometry" />
        </mxCell>
        <mxCell id="9IHO7kmMHEtFKrcHk71c-9" value="pinIn 1" style="fontStyle=0;labelPosition=center;verticalLabelPosition=top;align=center;verticalAlign=bottom;spacingLeft=2;fontFamily=Helvetica;fontSize=12;resizable=0;container=0;noLabel=1;" vertex="1" parent="1">
          <mxGeometry x="-665" y="-764.5" width="30" height="10" as="geometry" />
        </mxCell>
        <mxCell id="9IHO7kmMHEtFKrcHk71c-10" value="pinIn 1" style="fontStyle=0;labelPosition=center;verticalLabelPosition=top;align=center;verticalAlign=bottom;spacingLeft=2;fontFamily=Helvetica;fontSize=12;resizable=0;container=0;noLabel=1;" vertex="1" parent="1">
          <mxGeometry x="-665" y="-932" width="30" height="10" as="geometry" />
        </mxCell>
        <mxCell id="9IHO7kmMHEtFKrcHk71c-11" value="" style="edgeStyle=orthogonalEdgeStyle;rounded=0;orthogonalLoop=1;jettySize=auto;html=1;" edge="1" parent="1" source="9IHO7kmMHEtFKrcHk71c-12">
          <mxGeometry relative="1" as="geometry">
            <mxPoint x="-650" y="-764.5" as="targetPoint" />
          </mxGeometry>
        </mxCell>
        <mxCell id="9IHO7kmMHEtFKrcHk71c-12" value="pinOut 2" style="fontStyle=0;labelPosition=center;verticalLabelPosition=bottom;align=center;verticalAlign=top;spacingLeft=2;fontFamily=Helvetica;fontSize=12;resizable=0;container=0;noLabel=1;" vertex="1" parent="1">
          <mxGeometry x="-665" y="-802" width="30" height="10" as="geometry" />
        </mxCell>
        <mxCell id="9IHO7kmMHEtFKrcHk71c-13" value="" style="edgeStyle=orthogonalEdgeStyle;rounded=0;orthogonalLoop=1;jettySize=auto;html=1;" edge="1" parent="1" source="9IHO7kmMHEtFKrcHk71c-14">
          <mxGeometry relative="1" as="geometry">
            <mxPoint x="-650" y="-594.5" as="targetPoint" />
          </mxGeometry>
        </mxCell>
        <mxCell id="9IHO7kmMHEtFKrcHk71c-14" value="pinOut 2" style="fontStyle=0;labelPosition=center;verticalLabelPosition=bottom;align=center;verticalAlign=top;spacingLeft=2;fontFamily=Helvetica;fontSize=12;resizable=0;container=0;noLabel=1;" vertex="1" parent="1">
          <mxGeometry x="-665" y="-634.5" width="30" height="10" as="geometry" />
        </mxCell>
        <mxCell id="9IHO7kmMHEtFKrcHk71c-16" style="edgeStyle=orthogonalEdgeStyle;rounded=0;orthogonalLoop=1;jettySize=auto;html=1;exitX=0.5;exitY=1;exitDx=0;exitDy=0;entryX=0.5;entryY=0;entryDx=0;entryDy=0;" edge="1" parent="1" source="9IHO7kmMHEtFKrcHk71c-15" target="9IHO7kmMHEtFKrcHk71c-10">
          <mxGeometry relative="1" as="geometry" />
        </mxCell>
        <mxCell id="9IHO7kmMHEtFKrcHk71c-17" value="" style="shape=sumEllipse;perimeter=ellipsePerimeter;html=1;backgroundOutline=1;" vertex="1" parent="1">
          <mxGeometry x="-900" y="-1180" width="30" height="30" as="geometry" />
        </mxCell>
        <mxCell id="9IHO7kmMHEtFKrcHk71c-21" style="edgeStyle=orthogonalEdgeStyle;rounded=0;orthogonalLoop=1;jettySize=auto;html=1;exitX=0.75;exitY=1;exitDx=0;exitDy=0;" edge="1" parent="1" source="ua0UwOFp4txvmiH0tm5q-59" target="9IHO7kmMHEtFKrcHk71c-19">
          <mxGeometry relative="1" as="geometry">
            <Array as="points">
              <mxPoint x="-643" y="-1090" />
              <mxPoint x="-490" y="-1090" />
              <mxPoint x="-490" y="-1189" />
            </Array>
          </mxGeometry>
        </mxCell>
        <mxCell id="9IHO7kmMHEtFKrcHk71c-22" value="3" style="ellipse;html=1;" vertex="1" parent="1">
          <mxGeometry x="-160" y="-1200" width="30" height="30" as="geometry" />
        </mxCell>
        <mxCell id="9IHO7kmMHEtFKrcHk71c-23" value="" style="edgeStyle=orthogonalEdgeStyle;rounded=0;orthogonalLoop=1;jettySize=auto;html=1;" edge="1" parent="1" source="q_XP9tdPbFsaZTS1878Z-168" target="9IHO7kmMHEtFKrcHk71c-22">
          <mxGeometry relative="1" as="geometry">
            <Array as="points">
              <mxPoint x="-180" y="-1190" />
              <mxPoint x="-180" y="-1190" />
            </Array>
          </mxGeometry>
        </mxCell>
        <mxCell id="9IHO7kmMHEtFKrcHk71c-24" value="Output:&lt;br style=&quot;border-color: var(--border-color);&quot;&gt;&lt;br style=&quot;border-color: var(--border-color);&quot;&gt;List of QC derivatives (tsvs)&lt;br style=&quot;border-color: var(--border-color);&quot;&gt;Dict as Simple metric&lt;br style=&quot;border-color: var(--border-color);&quot;&gt;Str about EO&lt;span style=&quot;background-color: initial;&quot;&gt;G contamination&lt;/span&gt;" style="html=1;dashed=0;fontFamily=Helvetica;fontSize=12;fontColor=rgb(0, 0, 0);align=center;strokeColor=rgb(0, 0, 0);fillColor=rgb(255, 255, 255);" vertex="1" parent="1">
          <mxGeometry x="-200" y="-585.5" width="198" height="81" as="geometry" />
        </mxCell>
        <mxCell id="9IHO7kmMHEtFKrcHk71c-25" value="" style="edgeStyle=orthogonalEdgeStyle;rounded=0;orthogonalLoop=1;jettySize=auto;html=1;fontFamily=Helvetica;fontColor=#000000;" edge="1" parent="1" source="9IHO7kmMHEtFKrcHk71c-26" target="9IHO7kmMHEtFKrcHk71c-24">
          <mxGeometry relative="1" as="geometry">
            <Array as="points">
              <mxPoint x="-112" y="-585" />
              <mxPoint x="-112" y="-585" />
            </Array>
          </mxGeometry>
        </mxCell>
        <mxCell id="9IHO7kmMHEtFKrcHk71c-26" value="2" style="ellipse;html=1;" vertex="1" parent="1">
          <mxGeometry x="-141" y="-645" width="30" height="30" as="geometry" />
        </mxCell>
        <mxCell id="9IHO7kmMHEtFKrcHk71c-27" style="edgeStyle=orthogonalEdgeStyle;rounded=0;orthogonalLoop=1;jettySize=auto;html=1;exitX=0.5;exitY=1;exitDx=0;exitDy=0;entryX=0.594;entryY=-0.011;entryDx=0;entryDy=0;entryPerimeter=0;" edge="1" parent="1" target="9IHO7kmMHEtFKrcHk71c-24">
          <mxGeometry relative="1" as="geometry">
            <mxPoint x="-84" y="-615" as="sourcePoint" />
            <mxPoint x="-82.07200000000012" y="-584.0280000000002" as="targetPoint" />
          </mxGeometry>
        </mxCell>
        <mxCell id="9IHO7kmMHEtFKrcHk71c-28" value="3" style="ellipse;html=1;" vertex="1" parent="1">
          <mxGeometry x="-96" y="-645" width="30" height="30" as="geometry" />
        </mxCell>
        <mxCell id="9IHO7kmMHEtFKrcHk71c-29" style="edgeStyle=orthogonalEdgeStyle;rounded=0;orthogonalLoop=1;jettySize=auto;html=1;entryX=0.144;entryY=0.027;entryDx=0;entryDy=0;entryPerimeter=0;fontFamily=Helvetica;fontColor=#000000;" edge="1" parent="1" source="9IHO7kmMHEtFKrcHk71c-30" target="9IHO7kmMHEtFKrcHk71c-24">
          <mxGeometry relative="1" as="geometry">
            <Array as="points">
              <mxPoint x="-171" y="-585.75" />
            </Array>
          </mxGeometry>
        </mxCell>
        <mxCell id="9IHO7kmMHEtFKrcHk71c-30" value="1" style="ellipse;html=1;" vertex="1" parent="1">
          <mxGeometry x="-187" y="-645" width="30" height="30" as="geometry" />
        </mxCell>
        <mxCell id="9IHO7kmMHEtFKrcHk71c-31" value="" style="edgeStyle=orthogonalEdgeStyle;rounded=0;orthogonalLoop=1;jettySize=auto;html=1;entryX=0.827;entryY=-0.007;entryDx=0;entryDy=0;entryPerimeter=0;" edge="1" parent="1" source="9IHO7kmMHEtFKrcHk71c-32" target="9IHO7kmMHEtFKrcHk71c-24">
          <mxGeometry relative="1" as="geometry">
            <Array as="points">
              <mxPoint x="-36" y="-603.75" />
              <mxPoint x="-36" y="-603.75" />
            </Array>
          </mxGeometry>
        </mxCell>
        <mxCell id="9IHO7kmMHEtFKrcHk71c-32" value="4" style="ellipse;html=1;" vertex="1" parent="1">
          <mxGeometry x="-51" y="-645" width="30" height="30" as="geometry" />
        </mxCell>
      </root>
    </mxGraphModel>
  </diagram>
</mxfile>
